<?xml version="1.0" standalone="no"?>
<!DOCTYPE svg PUBLIC "-//W3C//DTD SVG 1.1//EN" "http://www.w3.org/Graphics/SVG/1.1/DTD/svg11.dtd">
<svg xmlns="http://www.w3.org/2000/svg">
<defs >
<font id="Livvic" horiz-adv-x="605" ><font-face
    font-family="Livvic Black"
    units-per-em="1000"
    panose-1="0 0 0 0 0 0 0 0 0 0"
    ascent="1005"
    descent="-250"
    alphabetic="0" />
<glyph unicode=" " glyph-name="space" horiz-adv-x="262" />
<glyph unicode="!" glyph-name="exclam" horiz-adv-x="308" d="M90 269L55 740H267L219 269H90ZM154 -11Q102 -11 70 20T38 99Q38 148 70 178T154 209Q206 209 237 179T269 99Q269 50 238 20T154 -11Z" />
<glyph unicode="&quot;" glyph-name="quotedbl" horiz-adv-x="547" d="M86 310L47 710H246L207 310H86ZM340 310L301 710H500L461 310H340Z" />
<glyph unicode="#" glyph-name="numbersign" horiz-adv-x="600" d="M39 0L76 174H1L31 314H105L122 395H48L78 535H152L189 710H343L306 535H370L407 710H561L524 535H599L569 395H494L477 314H552L522 174H448L411 0H257L294 174H230L193 0H39ZM259 314H323L340
395H276L259 314Z" />
<glyph unicode="$" glyph-name="dollar" horiz-adv-x="600" d="M237 -120V-6Q135 6 78 62T13 213L198 240Q200 202 224 179T304 155Q341 155 363 167T385 203Q385 226 360 238T296 261T213 284T130 321T66 384T41 487Q41 572 94 632T237 711V830H364V717Q447 705
502 653T566 519L390 489Q385 518 367 536T309 555Q283 555 263 542T242 505Q242 480 267 466T331 441T414 418T498 383T562 323T587 223Q587 163 559 116T481 37T364 -5V-120H237Z" />
<glyph unicode="%" glyph-name="percent" horiz-adv-x="875" d="M214 367Q130 367 78 413T26 538Q26 591 52 632T124 698T226 722Q312 722 362 677T412 551Q412 496 387 455T318 391T214 367ZM90 0L624 710H785L250 0H90ZM216 479Q248 479 266 498T284 551Q284
579 268 594T223 610Q191 610 173 592T155 539Q155 479 216 479ZM652 -9Q567 -9 515 37T463 162Q463 216 489 257T560 322T664 346Q750 346 799 300T849 175Q849 122 824 80T755 15T652 -9ZM653 103Q684 103 702 123T721 176Q721 205 704 219T658 234Q627 234 609
215T591 164Q591 134 607 119T653 103Z" />
<glyph unicode="&amp;" glyph-name="ampersand" horiz-adv-x="860" d="M343 -8Q253 -8 184 20T77 98T38 211Q38 278 68 321T142 392Q115 424 101 457T86 532Q86 585 116 626T198 692T320 716Q415 716 471 673T528 551Q528 506 509 475T460 422T395 382L553 239Q572
269 582 305H516V452H813V305H739Q721 220 670 151Q700 140 733 141Q756 141 771 145T805 160L846 26Q788 -15 697 -12Q604 -9 532 35Q490 14 443 3T343 -8ZM262 534Q262 520 269 507T300 471Q331 486 351 503T371 545Q371 563 358 572T322 581Q294 581 278 569T262
534ZM230 234Q230 191 266 165T361 138Q385 138 407 142L248 290Q230 265 230 234Z" />
<glyph unicode="&apos;" glyph-name="quotesingle" horiz-adv-x="293" d="M86 310L47 710H246L207 310H86Z" />
<glyph unicode="(" glyph-name="parenleft" horiz-adv-x="379" d="M328 -218Q182 -136 110 -9T38 267Q38 415 110 542T328 753L398 663Q342 614 304 558T247 430T226 267Q225 176 245 105T303 -22T398 -128L328 -218Z" />
<glyph unicode=")" glyph-name="parenright" horiz-adv-x="379" d="M51 -218L-19 -128Q37 -79 75 -23T134 105T153 267Q152 359 132 430T75 557T-19 663L51 753Q197 670 269 543T341 267Q341 119 269 -8T51 -218Z" />
<glyph unicode="*" glyph-name="asterisk" horiz-adv-x="442" d="M397 492Q423 478 429 454T420 405Q406 380 383 374T333 381Q312 393 298 416T249 471Q260 426 272 402T285 353Q285 325 268 308T221 290Q193 290 175 307T157 353Q157 378 169 402T192 470Q159
439 145 416T109 381Q84 367 60 373T22 405Q7 430 13 454T45 492Q65 504 92 505T164 520Q120 534 93 534T45 548Q20 562 14 586T22 635Q36 661 60 667T109 659Q130 647 144 625T192 570Q182 614 170 638T157 687Q157 716 175 733T221 750Q250 750 267 733T285 687Q285
662 273 638T249 569Q283 601 297 624T333 659Q359 673 382 667T420 635Q435 610 429 586T397 548Q377 535 350 535T278 520Q322 507 349 506T397 492Z" />
<glyph unicode="+" glyph-name="plus" horiz-adv-x="600" d="M210 514H389V341H557V173H389V0H210V173H43V341H210V514Z" />
<glyph unicode="," glyph-name="comma" horiz-adv-x="315" d="M33 -201Q54 -153 65 -115T76 -45Q76 -9 66 16T46 66T36 125Q36 167 69 197T158 228Q216 228 248 194T281 96Q281 54 261 1T206 -105T127 -201H33Z" />
<glyph unicode="-" glyph-name="hyphen" horiz-adv-x="453" d="M60 176V341H393V176H60Z" />
<glyph unicode="." glyph-name="period" horiz-adv-x="315" d="M157 -11Q99 -11 66 23T32 109Q32 161 65 195T157 230Q215 230 249 196T283 109Q283 58 249 24T157 -11Z" />
<glyph unicode="/" glyph-name="slash" horiz-adv-x="416" d="M0 -200L250 740H423L173 -200H0Z" />
<glyph unicode="0" glyph-name="zero" horiz-adv-x="600" d="M306 -11Q167 -13 96 73T24 342Q24 454 58 539T156 672T313 720Q439 720 507 632T576 369Q576 262 545 177T453 41T306 -11ZM300 156Q345 156 363 211T382 366Q382 460 365 507T306 554Q261 554 240
500T219 347Q219 250 236 203T300 156Z" />
<glyph unicode="1" glyph-name="one" horiz-adv-x="599" d="M81 0V154H241V458L145 391L54 526L324 710H433V154H580V0H81Z" />
<glyph unicode="2" glyph-name="two" horiz-adv-x="600" d="M50 0V130Q146 192 210 256T308 379T341 482Q341 551 273 551Q234 551 207 527T167 467L28 544Q46 596 85 635T179 697T298 720Q372 720 425 692T506 616T533 505Q533 417 479 328T301 154H549V0H50Z" />
<glyph unicode="3" glyph-name="three" horiz-adv-x="600" d="M245 -11Q187 -11 132 2T47 34L89 200Q124 180 165 169T255 158Q316 158 337 177T358 221Q358 251 331 266T245 282H199V433H242Q283 433 304 443T334 468T342 498Q342 521 327 536T276 551Q233 551
206 527T167 467L28 544Q46 596 85 635T179 697T299 720Q368 720 421 697T503 629T533 521Q533 475 507 432T430 366Q488 349 518 311T549 212Q549 150 512 99T406 19T245 -11Z" />
<glyph unicode="4" glyph-name="four" horiz-adv-x="600" d="M318 0V152H21V283L369 712H504V295H604V152H504V0H318ZM199 295H318V441L199 295Z" />
<glyph unicode="5" glyph-name="five" horiz-adv-x="600" d="M240 -11Q214 -11 178 -7T107 7T47 35L89 203Q124 183 164 171T251 158Q302 158 330 175T358 232Q358 254 346 270T302 295T211 307L87 312L120 710H512V556H293L285 463Q410 454 479 398T549 234Q549
165 511 110T404 22T240 -11Z" />
<glyph unicode="6" glyph-name="six" horiz-adv-x="600" d="M321 -11Q233 -11 169 26T69 143T34 346Q34 437 59 507T129 624T229 696T348 720Q522 720 589 567L432 491Q419 521 398 536T341 551Q292 551 260 512T224 401Q253 429 289 441T364 454Q421 454 472
430T556 358T589 235Q589 168 557 112T464 23T321 -11ZM319 143Q351 143 374 163T398 218Q398 255 378 277T319 300Q283 300 261 277T239 221Q239 181 263 162T319 143Z" />
<glyph unicode="7" glyph-name="seven" horiz-adv-x="600" d="M292 0H91L357 556H57V710H557V562L292 0Z" />
<glyph unicode="8" glyph-name="eight" horiz-adv-x="600" d="M300 -11Q169 -11 93 44T17 194Q17 250 51 296T142 363Q91 385 64 426T36 521Q36 579 71 623T167 694T300 720Q374 720 433 694T528 624T564 521Q564 467 537 426T458 363Q514 342 548 296T583 194Q583
100 507 45T300 -11ZM300 433Q333 433 353 450T373 499Q373 530 354 548T300 566Q267 566 247 547T227 497Q227 467 247 450T300 433ZM300 143Q344 143 368 161T393 214Q393 248 368 266T300 285Q258 285 233 266T207 213Q207 179 231 161T300 143Z" />
<glyph unicode="9" glyph-name="nine" horiz-adv-x="600" d="M279 723Q367 723 431 686T531 569T566 366Q566 275 541 205T471 88T371 16T252 -8Q78 -8 11 145L168 221Q181 191 202 176T259 161Q308 161 340 200T376 311Q347 283 311 271T236 258Q179 258 128
282T44 354T11 477Q11 544 43 600T136 689T279 723ZM281 569Q249 569 226 549T202 494Q202 457 222 435T281 412Q317 412 339 435T361 491Q361 531 337 550T281 569Z" />
<glyph unicode=":" glyph-name="colon" horiz-adv-x="315" d="M157 -11Q99 -11 66 23T32 109Q32 161 65 195T157 230Q215 230 249 196T283 109Q283 58 249 24T157 -11ZM157 282Q99 282 66 316T32 402Q32 454 65 488T157 523Q215 523 249 489T283 402Q283 351 249
317T157 282Z" />
<glyph unicode=";" glyph-name="semicolon" horiz-adv-x="315" d="M33 -201Q54 -153 65 -115T76 -45Q76 -9 66 16T46 66T36 125Q36 167 69 197T158 228Q216 228 248 194T281 96Q281 54 261 1T206 -105T127 -201H33ZM157 282Q99 282 66 316T32 402Q32 454 65 488T157
523Q215 523 249 489T283 402Q283 351 249 317T157 282Z" />
<glyph unicode="&lt;" glyph-name="less" horiz-adv-x="600" d="M36 189V322L564 530V364L278 256L564 147V-19L36 189Z" />
<glyph unicode="=" glyph-name="equal" horiz-adv-x="600" d="M557 457V309H43V457H557ZM557 206V58H43V206H557Z" />
<glyph unicode="&gt;" glyph-name="greater" horiz-adv-x="600" d="M564 189L36 -19V147L322 256L36 364V530L564 322V189Z" />
<glyph unicode="?" glyph-name="question" horiz-adv-x="511" d="M314 266L173 273Q163 353 182 402T240 480Q267 500 276 508T285 526Q285 538 274 545T237 553Q200 553 168 531T119 467L-16 544Q2 596 41 635T136 697T253 720Q324 720 373 697T449 633T476 540Q476
488 454 450T388 378Q344 345 330 323T314 266ZM247 -11Q195 -11 163 20T131 99Q131 148 163 178T247 209Q298 209 330 179T362 99Q362 50 330 20T247 -11Z" />
<glyph unicode="@" glyph-name="at" horiz-adv-x="1022" d="M527 -212Q415 -212 323 -179T165 -85T63 61T27 249Q27 356 64 443T170 593T334 691T545 725Q686 725 787 681T941 552T995 348Q995 257 963 184T874 69T747 26Q637 26 604 104Q550 26 450 26Q399 26
356 50T286 122T259 235Q259 312 294 376T393 480T538 519Q577 519 611 511T674 485L698 512L794 467L752 219Q743 168 781 168Q807 168 823 218T840 348Q840 460 763 521T546 582Q441 582 363 541T241 425T198 249Q198 151 237 81T351 -28T529 -66Q582 -66 635
-56T735 -22L806 -156Q748 -185 684 -198T527 -212ZM498 169Q533 169 557 200T592 287L607 370Q587 379 560 379Q506 379 472 340T437 241Q437 208 452 189T498 169Z" />
<glyph unicode="A" glyph-name="A" horiz-adv-x="707" d="M-39 0L274 710H440L742 0H540L490 127H215L163 0H-39ZM283 292H424L355 466L283 292Z" />
<glyph unicode="B" glyph-name="B" horiz-adv-x="662" d="M60 0V710H345Q485 710 560 658T635 509Q635 463 616 425T564 361Q602 341 626 303T651 213Q651 150 615 102T515 27T364 0H60ZM354 549H256V438H353Q397 438 417 452T437 494Q437 549 354 549ZM256 161H371Q409
161 431 176T453 221Q453 250 434 263T371 276H256V161Z" />
<glyph unicode="C" glyph-name="C" horiz-adv-x="693" d="M712 141Q666 68 586 29T408 -11Q288 -11 203 31T72 152T27 340Q27 455 76 540T215 672T422 720Q526 720 597 684T713 571L562 464Q543 501 503 522T415 544Q327 545 279 490T230 345Q230 260 274 213T409
165Q513 165 565 255L712 141Z" />
<glyph unicode="D" glyph-name="D" horiz-adv-x="767" d="M60 0V710H310Q523 710 631 621T740 356Q740 279 712 214T633 101T513 27T361 0H60ZM260 176H347Q442 176 490 221T539 351Q539 446 488 490T329 534H260V176Z" />
<glyph unicode="E" glyph-name="E" horiz-adv-x="595" d="M578 539H257V442H552V271H257V171H586L574 0H60V710H578V539Z" />
<glyph unicode="F" glyph-name="F" horiz-adv-x="552" d="M553 539H257V433H527V262H257V0H60V710H553V539Z" />
<glyph unicode="G" glyph-name="G" horiz-adv-x="784" d="M421 403H747V0H589L576 61Q545 25 494 7T385 -11Q276 -11 196 31T71 152T27 340Q27 453 77 538T219 672T433 720Q546 720 620 684T743 574L591 464Q568 505 525 523T434 541Q342 541 289 487T235 345Q235
261 281 214T410 167Q457 167 494 186T547 242H421V403Z" />
<glyph unicode="H" glyph-name="H" horiz-adv-x="774" d="M60 0V710H260V443H514V710H714V0H514V270H260V0H60Z" />
<glyph unicode="I" glyph-name="I" horiz-adv-x="320" d="M60 0V710H260V0H60Z" />
<glyph unicode="J" glyph-name="J" horiz-adv-x="523" d="M211 -11Q118 -11 55 32T-32 154L130 227Q142 193 161 179T205 164Q233 164 249 181T265 230V710H465V255Q465 131 398 60T211 -11Z" />
<glyph unicode="K" glyph-name="K" horiz-adv-x="719" d="M60 0V710H260V415L513 710H751L441 354Q465 341 484 321T517 277L556 210Q582 163 635 163Q678 163 712 184L758 30Q734 11 694 0T613 -12Q462 -12 397 99L332 210Q316 237 301 250T260 269V0H60Z" />
<glyph unicode="L" glyph-name="L" horiz-adv-x="552" d="M60 0V710H260V174H556L544 0H60Z" />
<glyph unicode="M" glyph-name="M" horiz-adv-x="959" d="M62 0L83 710H246L484 247L718 710H881L896 0H703L697 297L545 0H405L254 292L245 0H62Z" />
<glyph unicode="N" glyph-name="N" horiz-adv-x="765" d="M513 710H705V0H527L252 382V0H60V710H238L513 329V710Z" />
<glyph unicode="O" glyph-name="O" horiz-adv-x="786" d="M396 -10Q281 -11 198 31T71 152T27 342Q27 456 75 541T209 673T410 720Q515 720 593 676T715 554T759 369Q759 257 714 172T586 39T396 -10ZM391 165Q468 165 513 219T558 365Q558 447 516 496T402 545Q350
545 311 520T251 450T229 347Q229 261 272 213T391 165Z" />
<glyph unicode="P" glyph-name="P" horiz-adv-x="657" d="M256 0H60V710H329Q494 710 572 651T651 477Q651 401 610 346T494 262T315 232H256V0ZM335 549H256V394H325Q387 394 419 413T452 475Q452 513 424 531T335 549Z" />
<glyph unicode="Q" glyph-name="Q" horiz-adv-x="786" d="M742 -46Q733 -133 676 -172T536 -211Q460 -211 408 -184T329 -110T300 -2Q171 21 99 110T27 342Q27 456 75 541T209 673T410 720Q515 720 593 676T715 554T759 369Q759 275 727 200T635 74T495 2V-10Q495
-29 507 -42T543 -55Q558 -55 568 -49T581 -26L742 -46ZM391 165Q468 165 513 219T558 365Q558 447 516 496T402 545Q350 545 311 520T251 450T229 347Q229 261 272 213T391 165Z" />
<glyph unicode="R" glyph-name="R" horiz-adv-x="686" d="M686 184L732 30Q708 11 668 0T587 -12Q508 -12 456 17T372 99L306 210Q294 230 283 240T256 253V0H60V710H300Q464 710 542 648T621 476Q621 398 576 347T457 274Q495 262 517 229L535 202Q560 163 612
163Q631 163 649 167T686 184ZM298 549H256V408H307Q372 408 397 425T423 480Q423 520 389 534T298 549Z" />
<glyph unicode="S" glyph-name="S" horiz-adv-x="613" d="M299 -10Q165 -10 90 47T5 213L190 240Q192 202 223 179T305 155Q397 155 397 203Q397 225 372 238T288 266Q164 296 106 346T49 487Q50 556 85 608T185 690T337 720Q444 720 513 666T593 519L418 489Q413
518 388 536T326 555Q292 555 272 542T251 505Q251 484 271 469T349 439Q431 419 486 394T570 328T599 223Q599 154 562 102T457 20T299 -10Z" />
<glyph unicode="T" glyph-name="T" horiz-adv-x="611" d="M643 710L614 536H406V0H206V536H-16V710H643Z" />
<glyph unicode="U" glyph-name="U" horiz-adv-x="774" d="M519 710H715L717 321Q718 223 677 148T562 31T390 -11Q230 -11 144 69T57 306V710H257V316Q257 235 294 200T391 165Q453 165 487 203T521 328L519 710Z" />
<glyph unicode="V" glyph-name="V" horiz-adv-x="684" d="M522 710H722L475 0H192L-15 710H197L344 180L522 710Z" />
<glyph unicode="W" glyph-name="W" horiz-adv-x="1047" d="M877 710H1064L859 0H634L532 460L404 0H179L2 710H203L303 275L423 710H662L757 273L877 710Z" />
<glyph unicode="X" glyph-name="X" horiz-adv-x="657" d="M205 0H-11L217 357L-1 710H222L331 524L439 710H651L433 369L659 0H432L322 194L205 0Z" />
<glyph unicode="Y" glyph-name="Y" horiz-adv-x="636" d="M659 710L421 317V0H221V307L-29 710H194L328 489L451 710H659Z" />
<glyph unicode="Z" glyph-name="Z" horiz-adv-x="657" d="M35 0V143L358 536H55V710H629V567L306 174H641L630 0H35Z" />
<glyph unicode="[" glyph-name="bracketleft" horiz-adv-x="364" d="M366 -200H60V740H366V600H241V-60H366V-200Z" />
<glyph unicode="\" glyph-name="backslash" horiz-adv-x="416" d="M416 -200H243L-7 740H166L416 -200Z" />
<glyph unicode="]" glyph-name="bracketright" horiz-adv-x="363" d="M-2 -200V-60H122V600H-2V740H303V-200H-2Z" />
<glyph unicode="^" glyph-name="asciicircum" horiz-adv-x="600" d="M366 618L575 91H406L300 378L191 91H25L234 618H366Z" />
<glyph unicode="_" glyph-name="underscore" horiz-adv-x="581" d="M22 -154V0H559V-154H22Z" />
<glyph unicode="`" glyph-name="grave" horiz-adv-x="644" d="M254 573L103 705L291 750L416 573H254Z" />
<glyph unicode="a" glyph-name="a" horiz-adv-x="635" d="M583 510V0H398L403 73Q352 -11 246 -11Q145 -11 85 55T25 236Q25 322 61 386T158 485T287 521Q340 521 377 503T436 451L451 510H583ZM316 361Q270 361 243 327T216 242Q216 197 237 173T294 149Q335
149 365 183T396 272Q396 313 375 337T316 361Z" />
<glyph unicode="b" glyph-name="b" horiz-adv-x="635" d="M52 0V740H238V513L232 438Q283 521 389 521Q490 521 550 455T610 274Q610 188 574 124T478 25T348 -11Q294 -11 257 8T199 60L184 0H52ZM319 149Q366 149 392 183T419 268Q419 313 398 337T341 361Q301
361 270 328T239 238Q239 198 260 174T319 149Z" />
<glyph unicode="c" glyph-name="c" horiz-adv-x="501" d="M295 -11Q212 -11 152 20T58 110T25 246Q25 327 61 389T160 486T307 521Q380 521 434 493T516 410L386 312Q367 360 312 360Q269 360 243 330T217 249Q217 202 240 176T306 150Q361 150 389 201L514 98Q483
44 427 17T295 -11Z" />
<glyph unicode="d" glyph-name="d" horiz-adv-x="635" d="M583 740V0H398L403 73Q352 -11 246 -11Q145 -11 85 55T25 236Q25 322 61 386T158 485T287 521Q354 521 398 490L397 514V740H583ZM316 361Q270 361 243 327T216 242Q216 197 237 173T294 149Q335 149
365 183T396 272Q396 313 375 337T316 361Z" />
<glyph unicode="e" glyph-name="e" horiz-adv-x="552" d="M314 -11Q226 -11 161 20T61 111T25 250Q25 331 60 392T157 487T293 521Q385 521 440 481T515 371T523 208H215Q222 183 251 165T329 146Q357 146 382 155T424 182L521 69Q493 36 444 13T314 -11ZM301
390Q270 390 248 373T218 325H369Q366 390 301 390Z" />
<glyph unicode="f" glyph-name="f" horiz-adv-x="396" d="M84 0V361H-9V514H84V518Q84 591 117 642T205 722T330 750Q410 750 463 711T526 584L365 565Q360 594 324 594Q298 594 283 578T268 531V514H391V361H270V0H84Z" />
<glyph unicode="g" glyph-name="g" horiz-adv-x="639" d="M241 -210Q210 -210 172 -205T100 -191T42 -166L86 -8Q120 -25 163 -36T254 -48Q331 -48 363 -15T402 86Q352 13 251 13Q184 13 133 41T54 123T25 251Q25 332 62 393T159 487T290 521Q344 521 382 503T440
454L455 510H587V112Q587 3 543 -68T421 -175T241 -210ZM318 361Q271 361 244 331T216 257Q216 216 237 195T298 173Q339 173 369 203T400 282Q400 318 378 339T318 361Z" />
<glyph unicode="h" glyph-name="h" horiz-adv-x="644" d="M52 0V740H238V514L231 417Q262 467 308 494T412 521Q507 521 555 458T602 270L600 0H414L416 260Q416 350 357 350Q333 350 312 335T275 281T249 174T237 0H52Z" />
<glyph unicode="i" glyph-name="i" horiz-adv-x="290" d="M238 514V0H52V514H238ZM144 553Q92 553 61 584T30 660Q30 704 60 735T144 767Q197 767 227 736T258 660Q258 616 228 585T144 553Z" />
<glyph unicode="j" glyph-name="j" horiz-adv-x="299" d="M-9 -194Q-44 -194 -75 -190T-130 -179L-108 -27Q-94 -30 -68 -34T-16 -38Q23 -38 42 -21T61 42V514H247V45Q247 -32 215 -85T125 -166T-9 -194ZM153 553Q101 553 70 584T39 660Q39 704 69 735T153 767Q206
767 236 736T267 660Q267 616 237 585T153 553Z" />
<glyph unicode="k" glyph-name="k" horiz-adv-x="611" d="M52 0V740H238V316L417 514H636L411 265Q432 251 446 229L472 188Q485 168 505 155T557 142Q575 142 589 146T618 157L657 21Q626 3 592 -4T520 -12Q446 -12 400 14T316 102L291 144Q278 166 266 180T238
203V0H52Z" />
<glyph unicode="l" glyph-name="l" horiz-adv-x="327" d="M228 -11Q145 -11 99 34T52 165V740H238V182Q238 163 248 155T274 146Q294 146 309 157L352 25Q334 10 301 0T228 -11Z" />
<glyph unicode="m" glyph-name="m" horiz-adv-x="992" d="M52 0V514H236L229 416Q260 466 305 493T408 521Q461 521 504 497T570 416Q604 471 657 496T764 521Q859 521 905 458T950 270L948 0H762L764 260Q764 350 708 350Q685 350 665 335T630 281T605 174T593
0H408V260Q408 350 352 350Q329 350 309 335T274 281T249 174T237 0H52Z" />
<glyph unicode="n" glyph-name="n" horiz-adv-x="644" d="M52 0V514H237L230 417Q262 466 308 493T412 521Q507 521 555 458T602 270L600 0H414L416 260Q416 350 357 350Q333 350 312 335T275 281T249 174T237 0H52Z" />
<glyph unicode="o" glyph-name="o" horiz-adv-x="607" d="M314 521Q397 521 457 490T549 402T582 267Q582 187 546 124T445 25T291 -11Q167 -11 96 57T25 243Q25 323 61 386T162 485T314 521ZM300 149Q341 149 366 180T391 264Q391 310 369 335T308 361Q266 361
241 330T216 246Q216 200 238 175T300 149Z" />
<glyph unicode="p" glyph-name="p" horiz-adv-x="635" d="M52 -200V514H238L232 438Q283 521 389 521Q490 521 550 455T610 274Q610 188 574 124T478 25T348 -11Q281 -11 237 19L238 0V-200H52ZM319 149Q366 149 392 183T419 268Q419 313 398 337T341 361Q301
361 270 328T239 238Q239 198 260 174T319 149Z" />
<glyph unicode="q" glyph-name="q" horiz-adv-x="635" d="M583 510V-200H397V0L403 72Q352 -11 246 -11Q145 -11 85 55T25 236Q25 322 61 386T158 485T287 521Q340 521 377 503T436 451L451 510H583ZM316 361Q270 361 243 327T216 242Q216 197 237 173T294 149Q335
149 365 183T396 272Q396 313 375 337T316 361Z" />
<glyph unicode="r" glyph-name="r" horiz-adv-x="443" d="M429 333Q407 343 377 343Q298 343 268 260T238 0H53V334L51 514H236L228 382Q252 454 297 487T397 521Q414 521 429 519T463 511L429 333Z" />
<glyph unicode="s" glyph-name="s" horiz-adv-x="499" d="M250 -11Q172 -11 119 10T38 66T2 142L155 180Q160 161 187 146T257 130Q285 130 299 136T313 153Q313 159 307 163T283 171T227 180Q32 207 32 346Q32 397 61 436T143 499T265 522Q325 522 371 503T446
453T481 384L331 341Q325 356 307 368T254 381Q231 381 219 375T207 359Q207 351 220 344T285 327Q346 317 391 299T462 247T487 159Q487 106 456 68T371 10T250 -11Z" />
<glyph unicode="t" glyph-name="t" horiz-adv-x="453" d="M299 -11Q197 -11 139 44T82 190L85 361H3V514H88L90 618H274L272 514H426V361H270L268 212Q267 181 284 165T333 148Q354 148 375 153T418 174L470 34Q445 13 401 1T299 -11Z" />
<glyph unicode="u" glyph-name="u" horiz-adv-x="630" d="M228 -11Q136 -11 89 50T42 227L44 514H230L228 240Q228 162 283 162Q308 162 328 177T364 232T388 339T398 514H578V0H397L407 96Q377 47 332 18T228 -11Z" />
<glyph unicode="v" glyph-name="v" horiz-adv-x="567" d="M411 514H595L412 0H146L-14 514H188L289 157L411 514Z" />
<glyph unicode="w" glyph-name="w" horiz-adv-x="903" d="M741 514H923L752 0H519L455 248L381 0H147L-13 514H179L272 177L373 514H547L637 175L741 514Z" />
<glyph unicode="x" glyph-name="x" horiz-adv-x="532" d="M182 0H-34L156 265L-23 514H203L271 414L338 514H555L374 272L564 0H337L260 120L182 0Z" />
<glyph unicode="y" glyph-name="y" horiz-adv-x="634" d="M242 -210Q210 -210 173 -206T101 -191T43 -166L87 -8Q125 -27 164 -37T253 -48Q332 -48 366 -14T406 92L408 117Q378 69 333 41T230 13Q133 13 87 77T42 254L43 514H229L228 266Q228 226 243 206T287
186Q322 186 346 215T385 316T402 514H582V112Q582 0 540 -71T421 -176T242 -210Z" />
<glyph unicode="z" glyph-name="z" horiz-adv-x="465" d="M19 0V143L218 361H25V514H457V380L255 153H458V0H19Z" />
<glyph unicode="{" glyph-name="braceleft" horiz-adv-x="468" d="M335 -28Q335 -53 354 -72T406 -94L385 -206Q297 -197 244 -168T168 -99T144 -24Q144 7 154 34T175 86T186 136Q186 160 179 177T149 203T74 212V330Q125 330 148 339T179 365T186 406Q186 431
176 456T155 508T144 566Q144 603 167 641T244 709T385 748L406 636Q374 634 355 615T335 570Q335 546 345 523T366 473T376 410Q376 387 364 360T320 308T227 271Q288 258 320 234T364 182T376 132Q376 96 366 69T346 20T335 -28Z" />
<glyph unicode="|" glyph-name="bar" horiz-adv-x="329" d="M70 -200V740H259V-200H70Z" />
<glyph unicode="}" glyph-name="braceright" horiz-adv-x="468" d="M134 -28Q134 -3 124 19T103 69T92 132Q92 154 104 181T148 233T241 271Q180 284 148 308T104 359T92 410Q92 447 102 473T123 523T134 570Q134 596 115 615T62 636L83 748Q172 739 225 710T301
642T325 566Q325 535 315 508T294 456T283 406Q283 383 290 366T320 339T394 330V212Q344 212 321 203T290 177T283 136Q283 112 293 87T314 34T325 -24Q325 -60 302 -99T225 -167T83 -206L62 -94Q95 -92 114 -73T134 -28Z" />
<glyph unicode="~" glyph-name="asciitilde" horiz-adv-x="600" d="M401 144Q374 144 346 153T291 173T242 194T203 203Q176 203 159 195T128 167L39 251Q63 313 106 342T199 371Q226 371 254 362T309 341T358 320T397 311Q424 311 441 319T472 348L561 264Q537
202 494 173T401 144Z" />
<glyph unicode="&#xa0;" glyph-name="uni00A0" horiz-adv-x="262" />
<glyph unicode="&#xa1;" glyph-name="exclamdown" horiz-adv-x="308" d="M155 305Q101 305 70 337T39 415Q39 462 70 493T155 525Q209 525 239 494T270 415Q270 369 240 337T155 305ZM39 -200L90 246H219L251 -200H39Z" />
<glyph unicode="&#xa2;" glyph-name="cent" horiz-adv-x="600" d="M282 -120V-6Q184 10 129 76T73 246Q73 315 99 370T172 462T282 513V634H408V517Q518 499 564 410L434 312Q415 360 360 360Q317 360 291 330T265 249Q265 202 288 176T354 150Q409 150 437 201L562
98Q513 15 408 -5V-120H282Z" />
<glyph unicode="&#xa3;" glyph-name="sterling" horiz-adv-x="600" d="M98 -13L18 114Q47 123 71 145T110 197T125 257Q125 272 120 292H4V420H75Q71 437 69 455T66 492Q66 550 99 602T195 687T342 720Q534 720 602 544L449 477Q432 524 406 539T347 555Q301 555
282 533T262 483Q262 463 265 448T273 420H401V292H307V285Q307 255 302 230T280 178Q290 181 295 182T313 183Q339 183 365 170T415 157Q439 157 453 167T481 194L588 108Q563 53 514 21T407 -12Q374 -12 344 -2T283 19T214 30Q189 30 157 19T98 -13Z" />
<glyph unicode="&#xa4;" glyph-name="currency" horiz-adv-x="600" d="M110 60L9 161L81 232Q54 285 54 346Q54 402 77 452L9 518L110 619L171 560Q199 578 232 587T300 597Q333 597 364 589T422 564L491 632L591 531L520 460Q546 406 546 346Q546 281 515 225L577
163L476 61L413 124Q360 96 300 96Q267 96 236 104T179 128L110 60ZM300 256Q341 256 363 284T385 346Q385 381 363 408T300 437Q262 439 239 410T215 346Q215 312 237 284T300 256Z" />
<glyph unicode="&#xa5;" glyph-name="yen" horiz-adv-x="600" d="M66 100V227H209V270H66V398H179L-15 710H208L315 534L413 710H622L433 398H534V270H408V227H534V100H408V0H209V100H66Z" />
<glyph unicode="&#xa6;" glyph-name="brokenbar" horiz-adv-x="329" d="M70 380V740H259V380H70ZM259 160V-200H70V160H259Z" />
<glyph unicode="&#xa7;" glyph-name="section" horiz-adv-x="536" d="M484 162Q484 111 455 73T374 12T252 -10Q193 -10 148 9T75 59T41 128L184 171Q191 153 209 141T258 128Q286 128 295 135T304 149Q304 163 285 171T234 187T168 203T102 227T52 268T32 334Q32
373 49 400T97 446Q77 463 65 488T52 548Q52 599 81 638T163 698T284 720Q343 720 388 701T461 651T495 582L352 539Q346 557 328 569T278 582Q251 582 242 576T232 561Q232 547 251 539T302 523T368 507T434 483T484 442T504 376Q504 337 487 310T439 264Q459
247 471 222T484 162ZM212 362Q212 346 238 338T300 321Q324 326 324 348Q324 364 298 372T235 389Q212 383 212 362Z" />
<glyph unicode="&#xa8;" glyph-name="dieresis" horiz-adv-x="673" d="M221 568Q187 568 164 582T130 619T118 664Q118 700 144 730T221 760Q270 760 296 730T323 664Q323 642 311 620T277 583T221 568ZM450 568Q416 568 393 582T359 619T347 664Q347 700 373
730T450 760Q499 760 525 730T552 664Q552 642 540 620T506 583T450 568Z" />
<glyph unicode="&#xa9;" glyph-name="copyright" horiz-adv-x="840" d="M422 -16Q343 -16 275 11T155 88T74 204T45 349Q45 427 74 493T154 609T274 686T422 714Q500 714 568 687T687 610T766 494T795 349Q795 271 767 205T687 89T568 12T422 -16ZM422 51Q484
51 538 73T634 136T698 231T721 350Q721 413 698 467T634 562T539 624T422 647Q359 647 305 625T210 562T146 468T123 350Q123 265 162 198T270 91T422 51ZM614 235Q586 194 537 172T432 149Q323 149 263 200T202 342Q202 405 231 452T312 525T434 552Q498 552
540 532T615 465L499 390Q489 411 473 419T439 427Q402 427 380 404T357 346Q357 312 377 293T435 274Q453 274 470 283T502 316L614 235Z" />
<glyph unicode="&#xaa;" glyph-name="ordfeminine" horiz-adv-x="392" d="M361 459H224L227 499Q199 453 142 453Q81 453 48 491T15 591Q15 639 36 675T92 730T168 750Q225 750 253 715L261 743H361V459ZM191 638Q175 638 166 626T157 596Q157 583 164 574T185
564Q199 564 209 576T219 607Q219 638 191 638Z" />
<glyph unicode="&#xab;" glyph-name="guillemotleft" horiz-adv-x="620" d="M141 70L33 216V290L141 436H339L202 254L339 70H141ZM409 70L301 216V290L409 436H607L470 254L607 70H409Z" />
<glyph unicode="&#xac;" glyph-name="logicalnot" horiz-adv-x="600" d="M36 341H564V0H385V173H36V341Z" />
<glyph unicode="&#xad;" glyph-name="uni00AD" horiz-adv-x="453" d="M60 176V341H393V176H60Z" />
<glyph unicode="&#xae;" glyph-name="registered" horiz-adv-x="840" d="M422 -16Q343 -16 274 12T154 89T74 205T45 349Q45 427 73 493T153 609T273 686T422 714Q501 714 568 687T687 610T766 494T795 349Q795 272 767 206T688 90T569 12T422 -16ZM422 51Q485
51 539 73T634 137T698 232T721 350Q721 413 698 467T634 561T539 624T422 647Q359 647 305 625T210 562T146 468T123 350Q123 265 162 198T270 91T422 51ZM568 150Q523 150 498 161T458 189T437 224T422 256T400 277V159H249V550H404Q502 550 553 516T604 415Q604
375 582 347T521 306Q540 302 548 295T564 282T591 276Q617 276 632 288L660 179Q651 167 624 159T568 150ZM405 451H400V376H404Q433 376 442 388T452 415Q452 435 440 443T405 451Z" />
<glyph unicode="&#xaf;" glyph-name="overscore" horiz-adv-x="623" d="M130 716H490V594H130V716Z" />
<glyph unicode="&#xb0;" glyph-name="degree" horiz-adv-x="408" d="M205 383Q156 383 117 404T55 464T32 551Q32 599 54 636T116 695T205 717Q254 717 292 696T353 637T376 551Q376 502 354 464T293 405T205 383ZM205 490Q228 490 246 507T264 552Q264 579 246
595T205 612Q181 612 163 596T145 552Q145 524 163 507T205 490Z" />
<glyph unicode="&#xb1;" glyph-name="plusminus" horiz-adv-x="600" d="M219 514H381V423H501V275H381V184H219V275H99V423H219V514ZM36 0V148H564V0H36Z" />
<glyph unicode="&#xb2;" glyph-name="uni00B2" horiz-adv-x="330" d="M10 412Q44 429 78 458T135 518T158 574Q158 598 137 598Q125 598 115 587T100 554L-4 609Q18 659 60 687T161 715Q226 715 264 680T302 589Q301 541 274 500T194 428H309V319H10V412Z" />
<glyph unicode="&#xb3;" glyph-name="uni00B3" horiz-adv-x="330" d="M137 312Q97 312 65 320T16 339L46 451Q69 439 90 434T128 429Q166 429 166 447Q166 453 161 458T139 464H111V558H122Q154 558 154 580Q154 598 133 598Q124 598 113 591T97 570L7 633Q25
666 64 690T161 715Q223 715 263 685T301 599Q300 571 287 549T253 516Q310 497 310 438Q310 399 286 371T223 327T137 312Z" />
<glyph unicode="&#xb4;" glyph-name="acute" horiz-adv-x="639" d="M257 573L383 750L570 705L418 573H257Z" />
<glyph unicode="&#xb5;" glyph-name="uni00B5" horiz-adv-x="630" d="M398 514H578V0H397L406 87Q378 38 342 14T268 -11Q234 -11 215 -2L229 -200H42V514H231L229 229Q229 199 242 181T283 162Q308 162 328 177T364 232T388 339T398 514Z" />
<glyph unicode="&#xb6;" glyph-name="paragraph" horiz-adv-x="850" d="M596 710H790V0H596V710ZM6 474Q6 588 89 648T318 709H527V0H333V232H308Q216 232 148 260T43 343T6 474Z" />
<glyph unicode="&#xb7;" glyph-name="middot" horiz-adv-x="325" d="M162 145Q104 145 71 179T37 266Q37 318 70 352T162 386Q220 386 254 352T288 266Q288 214 254 180T162 145Z" />
<glyph unicode="&#xb8;" glyph-name="cedilla" horiz-adv-x="618" d="M284 -223Q264 -223 237 -220T184 -211T144 -198L179 -114Q198 -121 229 -127T289 -133Q310 -133 317 -128T324 -117Q324 -111 317 -107T292 -102H215L272 18H386L368 -29Q464 -50 464 -119Q464
-166 419 -194T284 -223Z" />
<glyph unicode="&#xb9;" glyph-name="uni00B9" horiz-adv-x="330" d="M28 428H118V528L70 495L0 591L181 710H264V428H344V319H28V428Z" />
<glyph unicode="&#xba;" glyph-name="ordmasculine" horiz-adv-x="372" d="M194 750Q270 750 313 713T357 610Q357 540 307 497T174 453Q101 453 58 489T15 593Q15 663 64 706T194 750ZM184 558Q201 558 212 571T224 607Q224 625 214 635T189 646Q171 646 160
634T148 597Q148 558 184 558Z" />
<glyph unicode="&#xbb;" glyph-name="guillemotright" horiz-adv-x="620" d="M210 70H13L149 254L13 436H210L319 290V216L210 70ZM478 70H281L417 254L281 436H478L587 290V216L478 70Z" />
<glyph unicode="&#xbc;" glyph-name="onequarter" horiz-adv-x="839" d="M28 428H118V528L70 495L0 591L181 710H264V428H344V319H28V428ZM168 0L517 710H671L322 0H168ZM836 66H798V0H678V66H516V143L695 392H798V155H836V66ZM623 155H678V233L623 155Z" />
<glyph unicode="&#xbd;" glyph-name="onehalf" horiz-adv-x="839" d="M28 428H118V528L70 495L0 591L181 710H264V428H344V319H28V428ZM168 0L517 710H671L322 0H168ZM519 93Q553 110 587 139T644 199T667 255Q667 279 646 279Q634 279 624 268T609 235L505 290Q527
340 569 368T670 396Q735 396 773 361T811 270Q810 222 783 181T703 109H818V0H519V93Z" />
<glyph unicode="&#xbe;" glyph-name="threequarters" horiz-adv-x="839" d="M137 312Q97 312 65 320T16 339L46 451Q69 439 90 434T128 429Q166 429 166 447Q166 453 161 458T139 464H111V558H122Q154 558 154 580Q154 598 133 598Q124 598 113 591T97 570L7 633Q25
666 64 690T161 715Q223 715 263 685T301 599Q300 571 287 549T253 516Q310 497 310 438Q310 399 286 371T223 327T137 312ZM168 0L517 710H671L322 0H168ZM836 66H798V0H678V66H516V143L695 392H798V155H836V66ZM623 155H678V233L623 155Z" />
<glyph unicode="&#xbf;" glyph-name="questiondown" horiz-adv-x="511" d="M264 306Q213 306 181 337T149 416Q149 465 181 496T264 527Q317 527 348 496T380 416Q380 368 349 337T264 306ZM258 -210Q188 -210 138 -187T62 -122T35 -30Q35 23 57 64T123 137Q167
170 181 192T197 249L338 242Q349 162 330 113T271 35Q244 15 235 5T226 -16Q226 -28 237 -35T274 -43Q312 -43 344 -20T392 43L527 -34Q510 -86 470 -125T376 -187T258 -210Z" />
<glyph unicode="&#xc0;" glyph-name="Agrave" horiz-adv-x="707" d="M-39 0L274 710H440L742 0H540L490 127H215L163 0H-39ZM283 292H424L355 466L283 292ZM273 769L122 901L310 946L435 769H273Z" />
<glyph unicode="&#xc1;" glyph-name="Aacute" horiz-adv-x="707" d="M-39 0L274 710H440L742 0H540L490 127H215L163 0H-39ZM283 292H424L355 466L283 292ZM276 769L402 946L589 901L437 769H276Z" />
<glyph unicode="&#xc2;" glyph-name="Acircumflex" horiz-adv-x="707" d="M-39 0L274 710H440L742 0H540L490 127H215L163 0H-39ZM283 292H424L355 466L283 292ZM565 769H394L354 824L313 769H142L279 936H429L565 769Z" />
<glyph unicode="&#xc3;" glyph-name="Atilde" horiz-adv-x="707" d="M-39 0L274 710H440L742 0H540L490 127H215L163 0H-39ZM283 292H424L355 466L283 292ZM432 762Q402 762 371 774T312 799T262 812Q250 812 232 803T202 773L135 834Q152 892 189 919T276 947Q306
947 337 935T397 911T446 898Q463 898 479 907T506 938L573 878Q557 820 520 791T432 762Z" />
<glyph unicode="&#xc4;" glyph-name="Adieresis" horiz-adv-x="707" d="M-39 0L274 710H440L742 0H540L490 127H215L163 0H-39ZM283 292H424L355 466L283 292ZM240 764Q206 764 183 778T149 815T137 860Q137 896 163 926T240 956Q289 956 315 926T342 860Q342
838 330 816T296 779T240 764ZM469 764Q435 764 412 778T378 815T366 860Q366 896 392 926T469 956Q518 956 544 926T571 860Q571 838 559 816T525 779T469 764Z" />
<glyph unicode="&#xc5;" glyph-name="Aring" horiz-adv-x="707" d="M-39 0L274 710H440L742 0H540L490 127H215L163 0H-39ZM283 292H424L355 466L283 292ZM353 764Q318 764 289 779T242 822T225 881Q225 915 243 942T291 986T357 1002Q410 1002 446 969T483 885Q483
851 466 824T419 780T353 764ZM354 832Q376 832 390 847T405 885Q405 906 391 920T356 934Q334 934 319 919T303 881Q303 859 317 846T354 832Z" />
<glyph unicode="&#xc6;" glyph-name="AE" horiz-adv-x="969" d="M-39 0L274 710H952V539H642V442H926V271H642V171H960L948 0H444V124H214L163 0H-39ZM285 295H444V539H385L285 295Z" />
<glyph unicode="&#xc7;" glyph-name="Ccedilla" horiz-adv-x="693" d="M712 141Q666 68 586 29T408 -11Q288 -11 203 31T72 152T27 340Q27 455 76 540T215 672T422 720Q526 720 597 684T713 571L562 464Q543 501 503 522T415 544Q327 545 279 490T230 345Q230
260 274 213T409 165Q513 165 565 255L712 141ZM378 -223Q358 -223 331 -220T278 -211T238 -198L273 -114Q292 -121 323 -127T383 -133Q404 -133 411 -128T418 -117Q418 -111 411 -107T386 -102H309L366 18H480L462 -29Q558 -50 558 -119Q558 -166 513 -194T378
-223Z" />
<glyph unicode="&#xc8;" glyph-name="Egrave" horiz-adv-x="595" d="M578 539H257V442H552V271H257V171H586L574 0H60V710H578V539ZM494 769L343 901L531 946L656 769H494Z" />
<glyph unicode="&#xc9;" glyph-name="Eacute" horiz-adv-x="595" d="M578 539H257V442H552V271H257V171H586L574 0H60V710H578V539ZM497 769L623 946L810 901L658 769H497Z" />
<glyph unicode="&#xca;" glyph-name="Ecircumflex" horiz-adv-x="595" d="M578 539H257V442H552V271H257V171H586L574 0H60V710H578V539ZM786 769H615L575 824L534 769H363L500 936H650L786 769Z" />
<glyph unicode="&#xcb;" glyph-name="Edieresis" horiz-adv-x="595" d="M578 539H257V442H552V271H257V171H586L574 0H60V710H578V539ZM461 764Q427 764 404 778T370 815T358 860Q358 896 384 926T461 956Q510 956 536 926T563 860Q563 838 551 816T517 779T461
764ZM690 764Q656 764 633 778T599 815T587 860Q587 896 613 926T690 956Q739 956 765 926T792 860Q792 838 780 816T746 779T690 764Z" />
<glyph unicode="&#xcc;" glyph-name="Igrave" horiz-adv-x="320" d="M60 0V710H260V0H60ZM79 769L-72 901L116 946L241 769H79Z" />
<glyph unicode="&#xcd;" glyph-name="Iacute" horiz-adv-x="320" d="M60 0V710H260V0H60ZM82 769L208 946L395 901L243 769H82Z" />
<glyph unicode="&#xce;" glyph-name="Icircumflex" horiz-adv-x="320" d="M60 0V710H260V0H60ZM371 769H200L160 824L119 769H-52L85 936H235L371 769Z" />
<glyph unicode="&#xcf;" glyph-name="Idieresis" horiz-adv-x="320" d="M60 0V710H260V0H60ZM46 764Q12 764 -11 778T-45 815T-57 860Q-57 896 -31 926T46 956Q95 956 121 926T148 860Q148 838 136 816T102 779T46 764ZM275 764Q241 764 218 778T184 815T172 860Q172
896 198 926T275 956Q324 956 350 926T377 860Q377 838 365 816T331 779T275 764Z" />
<glyph unicode="&#xd0;" glyph-name="Eth" horiz-adv-x="767" d="M60 0V710H310Q523 710 631 621T740 356Q740 279 712 214T633 101T513 27T361 0H60ZM260 176H347Q442 176 490 221T539 351Q539 446 488 490T329 534H260V176ZM274 548V684H669V548H274Z" />
<glyph unicode="&#xd1;" glyph-name="Ntilde" horiz-adv-x="765" d="M513 710H705V0H527L252 382V0H60V710H238L513 329V710ZM460 765Q430 765 399 777T340 802T290 815Q278 815 260 806T230 776L163 837Q180 895 217 922T304 950Q334 950 365 938T425 914T474
901Q491 901 507 910T534 941L601 881Q585 823 548 794T460 765Z" />
<glyph unicode="&#xd2;" glyph-name="Ograve" horiz-adv-x="786" d="M396 -10Q281 -11 198 31T71 152T27 342Q27 456 75 541T209 673T410 720Q515 720 593 676T715 554T759 369Q759 257 714 172T586 39T396 -10ZM391 165Q468 165 513 219T558 365Q558 447 516
496T402 545Q350 545 311 520T251 450T229 347Q229 261 272 213T391 165ZM312 769L161 901L349 946L474 769H312Z" />
<glyph unicode="&#xd3;" glyph-name="Oacute" horiz-adv-x="786" d="M396 -10Q281 -11 198 31T71 152T27 342Q27 456 75 541T209 673T410 720Q515 720 593 676T715 554T759 369Q759 257 714 172T586 39T396 -10ZM391 165Q468 165 513 219T558 365Q558 447 516
496T402 545Q350 545 311 520T251 450T229 347Q229 261 272 213T391 165ZM315 769L441 946L628 901L476 769H315Z" />
<glyph unicode="&#xd4;" glyph-name="Ocircumflex" horiz-adv-x="786" d="M396 -10Q281 -11 198 31T71 152T27 342Q27 456 75 541T209 673T410 720Q515 720 593 676T715 554T759 369Q759 257 714 172T586 39T396 -10ZM391 165Q468 165 513 219T558 365Q558 447
516 496T402 545Q350 545 311 520T251 450T229 347Q229 261 272 213T391 165ZM604 769H433L393 824L352 769H181L318 936H468L604 769Z" />
<glyph unicode="&#xd5;" glyph-name="Otilde" horiz-adv-x="786" d="M396 -10Q281 -11 198 31T71 152T27 342Q27 456 75 541T209 673T410 720Q515 720 593 676T715 554T759 369Q759 257 714 172T586 39T396 -10ZM391 165Q468 165 513 219T558 365Q558 447 516
496T402 545Q350 545 311 520T251 450T229 347Q229 261 272 213T391 165ZM471 762Q441 762 410 774T351 799T301 812Q289 812 271 803T241 773L174 834Q191 892 228 919T315 947Q345 947 376 935T436 911T485 898Q502 898 518 907T545 938L612 878Q596 820 559
791T471 762Z" />
<glyph unicode="&#xd6;" glyph-name="Odieresis" horiz-adv-x="786" d="M396 -10Q281 -11 198 31T71 152T27 342Q27 456 75 541T209 673T410 720Q515 720 593 676T715 554T759 369Q759 257 714 172T586 39T396 -10ZM391 165Q468 165 513 219T558 365Q558 447 516
496T402 545Q350 545 311 520T251 450T229 347Q229 261 272 213T391 165ZM279 764Q245 764 222 778T188 815T176 860Q176 896 202 926T279 956Q328 956 354 926T381 860Q381 838 369 816T335 779T279 764ZM508 764Q474 764 451 778T417 815T405 860Q405 896 431
926T508 956Q557 956 583 926T610 860Q610 838 598 816T564 779T508 764Z" />
<glyph unicode="&#xd7;" glyph-name="multiply" horiz-adv-x="600" d="M546 130L427 11L300 138L173 11L54 130L181 257L54 384L173 503L300 376L427 503L546 384L419 257L546 130Z" />
<glyph unicode="&#xd8;" glyph-name="Oslash" horiz-adv-x="786" d="M396 -10Q281 -11 198 31T71 152T27 342Q27 456 75 541T209 673T410 720Q515 720 593 676T715 554T759 369Q759 257 714 172T586 39T396 -10ZM391 165Q468 165 513 219T558 365Q558 447 516
496T402 545Q350 545 311 520T251 450T229 347Q229 261 272 213T391 165ZM192 -70L70 9L595 780L717 701L192 -70Z" />
<glyph unicode="&#xd9;" glyph-name="Ugrave" horiz-adv-x="774" d="M519 710H715L717 321Q718 223 677 148T562 31T390 -11Q230 -11 144 69T57 306V710H257V316Q257 235 294 200T391 165Q453 165 487 203T521 328L519 710ZM306 769L155 901L343 946L468 769H306Z" />
<glyph unicode="&#xda;" glyph-name="Uacute" horiz-adv-x="774" d="M519 710H715L717 321Q718 223 677 148T562 31T390 -11Q230 -11 144 69T57 306V710H257V316Q257 235 294 200T391 165Q453 165 487 203T521 328L519 710ZM309 769L435 946L622 901L470 769H309Z" />
<glyph unicode="&#xdb;" glyph-name="Ucircumflex" horiz-adv-x="774" d="M519 710H715L717 321Q718 223 677 148T562 31T390 -11Q230 -11 144 69T57 306V710H257V316Q257 235 294 200T391 165Q453 165 487 203T521 328L519 710ZM598 769H427L387 824L346 769H175L312
936H462L598 769Z" />
<glyph unicode="&#xdc;" glyph-name="Udieresis" horiz-adv-x="774" d="M519 710H715L717 321Q718 223 677 148T562 31T390 -11Q230 -11 144 69T57 306V710H257V316Q257 235 294 200T391 165Q453 165 487 203T521 328L519 710ZM273 764Q239 764 216 778T182 815T170
860Q170 896 196 926T273 956Q322 956 348 926T375 860Q375 838 363 816T329 779T273 764ZM502 764Q468 764 445 778T411 815T399 860Q399 896 425 926T502 956Q551 956 577 926T604 860Q604 838 592 816T558 779T502 764Z" />
<glyph unicode="&#xdd;" glyph-name="Yacute" horiz-adv-x="636" d="M659 710L421 317V0H221V307L-29 710H194L328 489L451 710H659ZM501 769L627 946L814 901L662 769H501Z" />
<glyph unicode="&#xde;" glyph-name="Thorn" horiz-adv-x="656" d="M255 710V618H329Q494 618 572 559T651 386Q651 310 610 255T494 171T315 141H255V0H60V709L255 710ZM335 457H255V303H325Q387 303 419 322T452 384Q452 422 424 439T335 457Z" />
<glyph unicode="&#xdf;" glyph-name="germandbls" horiz-adv-x="742" d="M-9 361V514H90Q99 583 140 636T249 720T407 750Q475 750 527 729T610 671T641 584Q641 543 628 515T595 466T556 432T523 406T509 381Q509 366 527 358T573 344T632 327T692 299T738 248T756
165Q756 119 729 79T652 14T537 -11Q440 -11 383 25T303 129L469 168Q474 149 491 138T532 127Q576 127 576 155Q576 169 559 177T514 192T455 209T396 235T351 279T333 350Q333 387 347 414T383 461T425 498T460 531T475 568Q475 610 403 610Q343 610 308 578T273
473V0H87V361H-9Z" />
<glyph unicode="&#xe0;" glyph-name="agrave" horiz-adv-x="635" d="M583 510V0H398L403 73Q352 -11 246 -11Q145 -11 85 55T25 236Q25 322 61 386T158 485T287 521Q340 521 377 503T436 451L451 510H583ZM316 361Q270 361 243 327T216 242Q216 197 237 173T294
149Q335 149 365 183T396 272Q396 313 375 337T316 361ZM501 573L350 705L538 750L663 573H501Z" />
<glyph unicode="&#xe1;" glyph-name="aacute" horiz-adv-x="635" d="M583 510V0H398L403 73Q352 -11 246 -11Q145 -11 85 55T25 236Q25 322 61 386T158 485T287 521Q340 521 377 503T436 451L451 510H583ZM316 361Q270 361 243 327T216 242Q216 197 237 173T294
149Q335 149 365 183T396 272Q396 313 375 337T316 361ZM504 573L630 750L817 705L665 573H504Z" />
<glyph unicode="&#xe2;" glyph-name="acircumflex" horiz-adv-x="635" d="M583 510V0H398L403 73Q352 -11 246 -11Q145 -11 85 55T25 236Q25 322 61 386T158 485T287 521Q340 521 377 503T436 451L451 510H583ZM316 361Q270 361 243 327T216 242Q216 197 237 173T294
149Q335 149 365 183T396 272Q396 313 375 337T316 361ZM537 573H366L326 628L285 573H114L251 740H401L537 573Z" />
<glyph unicode="&#xe3;" glyph-name="atilde" horiz-adv-x="635" d="M583 510V0H398L403 73Q352 -11 246 -11Q145 -11 85 55T25 236Q25 322 61 386T158 485T287 521Q340 521 377 503T436 451L451 510H583ZM316 361Q270 361 243 327T216 242Q216 197 237 173T294
149Q335 149 365 183T396 272Q396 313 375 337T316 361ZM660 566Q630 566 599 578T540 603T490 616Q478 616 460 607T430 577L363 638Q380 696 417 723T504 751Q534 751 565 739T625 715T674 702Q691 702 707 711T734 742L801 682Q785 624 748 595T660 566Z" />
<glyph unicode="&#xe4;" glyph-name="adieresis" horiz-adv-x="635" d="M583 510V0H398L403 73Q352 -11 246 -11Q145 -11 85 55T25 236Q25 322 61 386T158 485T287 521Q340 521 377 503T436 451L451 510H583ZM316 361Q270 361 243 327T216 242Q216 197 237 173T294
149Q335 149 365 183T396 272Q396 313 375 337T316 361ZM468 568Q434 568 411 582T377 619T365 664Q365 700 391 730T468 760Q517 760 543 730T570 664Q570 642 558 620T524 583T468 568ZM697 568Q663 568 640 582T606 619T594 664Q594 700 620 730T697 760Q746
760 772 730T799 664Q799 642 787 620T753 583T697 568Z" />
<glyph unicode="&#xe5;" glyph-name="aring" horiz-adv-x="635" d="M583 510V0H398L403 73Q352 -11 246 -11Q145 -11 85 55T25 236Q25 322 61 386T158 485T287 521Q340 521 377 503T436 451L451 510H583ZM316 361Q270 361 243 327T216 242Q216 197 237 173T294
149Q335 149 365 183T396 272Q396 313 375 337T316 361ZM581 568Q546 568 517 583T470 626T453 685Q453 719 471 746T519 790T585 806Q638 806 674 773T711 689Q711 655 694 628T647 584T581 568ZM582 636Q604 636 618 651T633 689Q633 710 619 724T584 738Q562
738 547 723T531 685Q531 663 545 650T582 636Z" />
<glyph unicode="&#xe6;" glyph-name="ae" horiz-adv-x="842" d="M239 -11Q178 -11 130 11T53 71T25 158Q25 230 80 277T246 325H321V331Q321 355 304 367T262 379Q234 379 215 368T185 336L31 372Q57 441 118 481T265 521Q312 521 357 507T434 455Q498 521 602
521Q685 521 736 481T806 371T814 208H511Q518 183 546 165T622 146Q649 146 673 155T714 182L810 69Q782 36 736 13T609 -11Q552 -11 501 9T413 72Q381 26 338 8T239 -11ZM594 390Q564 390 543 373T513 325H659Q657 390 594 390ZM259 123Q321 123 321 188V208H265Q204
208 204 166Q204 148 217 136T259 123Z" />
<glyph unicode="&#xe7;" glyph-name="ccedilla" horiz-adv-x="501" d="M295 -11Q212 -11 152 20T58 110T25 246Q25 327 61 389T160 486T307 521Q380 521 434 493T516 410L386 312Q367 360 312 360Q269 360 243 330T217 249Q217 202 240 176T306 150Q361 150 389
201L514 98Q483 44 427 17T295 -11ZM520 -223Q500 -223 473 -220T420 -211T380 -198L415 -114Q434 -121 465 -127T525 -133Q546 -133 553 -128T560 -117Q560 -111 553 -107T528 -102H451L508 18H622L604 -29Q700 -50 700 -119Q700 -166 655 -194T520 -223Z" />
<glyph unicode="&#xe8;" glyph-name="egrave" horiz-adv-x="552" d="M314 -11Q226 -11 161 20T61 111T25 250Q25 331 60 392T157 487T293 521Q385 521 440 481T515 371T523 208H215Q222 183 251 165T329 146Q357 146 382 155T424 182L521 69Q493 36 444 13T314
-11ZM301 390Q270 390 248 373T218 325H369Q366 390 301 390ZM466 573L315 705L503 750L628 573H466Z" />
<glyph unicode="&#xe9;" glyph-name="eacute" horiz-adv-x="552" d="M314 -11Q226 -11 161 20T61 111T25 250Q25 331 60 392T157 487T293 521Q385 521 440 481T515 371T523 208H215Q222 183 251 165T329 146Q357 146 382 155T424 182L521 69Q493 36 444 13T314
-11ZM301 390Q270 390 248 373T218 325H369Q366 390 301 390ZM469 573L595 750L782 705L630 573H469Z" />
<glyph unicode="&#xea;" glyph-name="ecircumflex" horiz-adv-x="552" d="M314 -11Q226 -11 161 20T61 111T25 250Q25 331 60 392T157 487T293 521Q385 521 440 481T515 371T523 208H215Q222 183 251 165T329 146Q357 146 382 155T424 182L521 69Q493 36 444 13T314
-11ZM301 390Q270 390 248 373T218 325H369Q366 390 301 390ZM758 573H587L547 628L506 573H335L472 740H622L758 573Z" />
<glyph unicode="&#xeb;" glyph-name="edieresis" horiz-adv-x="552" d="M314 -11Q226 -11 161 20T61 111T25 250Q25 331 60 392T157 487T293 521Q385 521 440 481T515 371T523 208H215Q222 183 251 165T329 146Q357 146 382 155T424 182L521 69Q493 36 444 13T314
-11ZM301 390Q270 390 248 373T218 325H369Q366 390 301 390ZM433 568Q399 568 376 582T342 619T330 664Q330 700 356 730T433 760Q482 760 508 730T535 664Q535 642 523 620T489 583T433 568ZM662 568Q628 568 605 582T571 619T559 664Q559 700 585 730T662 760Q711
760 737 730T764 664Q764 642 752 620T718 583T662 568Z" />
<glyph unicode="&#xec;" glyph-name="igrave" horiz-adv-x="290" d="M238 514V0H52V514H238ZM64 573L-87 705L101 750L226 573H64Z" />
<glyph unicode="&#xed;" glyph-name="iacute" horiz-adv-x="290" d="M238 514V0H52V514H238ZM67 573L193 750L380 705L228 573H67Z" />
<glyph unicode="&#xee;" glyph-name="icircumflex" horiz-adv-x="290" d="M238 514V0H52V514H238ZM356 573H185L145 628L104 573H-67L70 740H220L356 573Z" />
<glyph unicode="&#xef;" glyph-name="idieresis" horiz-adv-x="290" d="M238 514V0H52V514H238ZM31 568Q-3 568 -26 582T-60 619T-72 664Q-72 700 -46 730T31 760Q80 760 106 730T133 664Q133 642 121 620T87 583T31 568ZM260 568Q226 568 203 582T169 619T157
664Q157 700 183 730T260 760Q309 760 335 730T362 664Q362 642 350 620T316 583T260 568Z" />
<glyph unicode="&#xf0;" glyph-name="eth" horiz-adv-x="633" d="M302 -11Q218 -11 156 18T60 100T26 226Q26 298 59 353T151 439T284 470Q322 470 353 462T408 436Q389 475 355 510L160 477L140 580L227 595Q186 612 141 623L200 758Q277 739 341 708T456 634L583
656L603 552L543 542Q577 492 595 437T614 321Q614 223 575 148T465 31T302 -11ZM312 149Q359 149 386 173T414 238Q414 276 389 297T318 318Q272 318 246 295T219 229Q219 192 244 171T312 149Z" />
<glyph unicode="&#xf1;" glyph-name="ntilde" horiz-adv-x="644" d="M52 0V514H237L230 417Q262 466 308 493T412 521Q507 521 555 458T602 270L600 0H414L416 260Q416 350 357 350Q333 350 312 335T275 281T249 174T237 0H52ZM660 566Q630 566 599 578T540 603T490
616Q478 616 460 607T430 577L363 638Q380 696 417 723T504 751Q534 751 565 739T625 715T674 702Q691 702 707 711T734 742L801 682Q785 624 748 595T660 566Z" />
<glyph unicode="&#xf2;" glyph-name="ograve" horiz-adv-x="607" d="M314 521Q397 521 457 490T549 402T582 267Q582 187 546 124T445 25T291 -11Q167 -11 96 57T25 243Q25 323 61 386T162 485T314 521ZM300 149Q341 149 366 180T391 264Q391 310 369 335T308
361Q266 361 241 330T216 246Q216 200 238 175T300 149ZM479 573L328 705L516 750L641 573H479Z" />
<glyph unicode="&#xf3;" glyph-name="oacute" horiz-adv-x="607" d="M314 521Q397 521 457 490T549 402T582 267Q582 187 546 124T445 25T291 -11Q167 -11 96 57T25 243Q25 323 61 386T162 485T314 521ZM300 149Q341 149 366 180T391 264Q391 310 369 335T308
361Q266 361 241 330T216 246Q216 200 238 175T300 149ZM482 573L608 750L795 705L643 573H482Z" />
<glyph unicode="&#xf4;" glyph-name="ocircumflex" horiz-adv-x="607" d="M314 521Q397 521 457 490T549 402T582 267Q582 187 546 124T445 25T291 -11Q167 -11 96 57T25 243Q25 323 61 386T162 485T314 521ZM300 149Q341 149 366 180T391 264Q391 310 369 335T308
361Q266 361 241 330T216 246Q216 200 238 175T300 149ZM771 573H600L560 628L519 573H348L485 740H635L771 573Z" />
<glyph unicode="&#xf5;" glyph-name="otilde" horiz-adv-x="607" d="M314 521Q397 521 457 490T549 402T582 267Q582 187 546 124T445 25T291 -11Q167 -11 96 57T25 243Q25 323 61 386T162 485T314 521ZM300 149Q341 149 366 180T391 264Q391 310 369 335T308
361Q266 361 241 330T216 246Q216 200 238 175T300 149ZM638 566Q608 566 577 578T518 603T468 616Q456 616 438 607T408 577L341 638Q358 696 395 723T482 751Q512 751 543 739T603 715T652 702Q669 702 685 711T712 742L779 682Q763 624 726 595T638 566Z" />
<glyph unicode="&#xf6;" glyph-name="odieresis" horiz-adv-x="607" d="M314 521Q397 521 457 490T549 402T582 267Q582 187 546 124T445 25T291 -11Q167 -11 96 57T25 243Q25 323 61 386T162 485T314 521ZM300 149Q341 149 366 180T391 264Q391 310 369 335T308
361Q266 361 241 330T216 246Q216 200 238 175T300 149ZM446 568Q412 568 389 582T355 619T343 664Q343 700 369 730T446 760Q495 760 521 730T548 664Q548 642 536 620T502 583T446 568ZM675 568Q641 568 618 582T584 619T572 664Q572 700 598 730T675 760Q724
760 750 730T777 664Q777 642 765 620T731 583T675 568Z" />
<glyph unicode="&#xf7;" glyph-name="divide" horiz-adv-x="600" d="M300 344Q261 344 232 369T202 434Q202 473 231 498T300 524Q339 524 368 499T397 434Q397 395 368 370T300 344ZM557 331V182H43V331H557ZM300 -11Q261 -11 232 14T202 79Q202 118 231 143T300
169Q339 169 368 144T397 79Q397 39 368 14T300 -11Z" />
<glyph unicode="&#xf8;" glyph-name="oslash" horiz-adv-x="607" d="M314 521Q397 521 457 490T549 402T582 267Q582 187 546 124T445 25T291 -11Q167 -11 96 57T25 243Q25 323 61 386T162 485T314 521ZM300 149Q341 149 366 180T391 264Q391 310 369 335T308
361Q266 361 241 330T216 246Q216 200 238 175T300 149ZM430 207L321 279L367 347L451 442L595 654L642 748L688 816L797 744L751 676L667 580L522 368L476 275L430 207Z" />
<glyph unicode="&#xf9;" glyph-name="ugrave" horiz-adv-x="630" d="M228 -11Q136 -11 89 50T42 227L44 514H230L228 240Q228 162 283 162Q308 162 328 177T364 232T388 339T398 514H578V0H397L407 96Q377 47 332 18T228 -11ZM490 573L339 705L527 750L652 573H490Z" />
<glyph unicode="&#xfa;" glyph-name="uacute" horiz-adv-x="630" d="M228 -11Q136 -11 89 50T42 227L44 514H230L228 240Q228 162 283 162Q308 162 328 177T364 232T388 339T398 514H578V0H397L407 96Q377 47 332 18T228 -11ZM493 573L619 750L806 705L654 573H493Z" />
<glyph unicode="&#xfb;" glyph-name="ucircumflex" horiz-adv-x="630" d="M228 -11Q136 -11 89 50T42 227L44 514H230L228 240Q228 162 283 162Q308 162 328 177T364 232T388 339T398 514H578V0H397L407 96Q377 47 332 18T228 -11ZM782 573H611L571 628L530 573H359L496
740H646L782 573Z" />
<glyph unicode="&#xfc;" glyph-name="udieresis" horiz-adv-x="630" d="M228 -11Q136 -11 89 50T42 227L44 514H230L228 240Q228 162 283 162Q308 162 328 177T364 232T388 339T398 514H578V0H397L407 96Q377 47 332 18T228 -11ZM457 568Q423 568 400 582T366
619T354 664Q354 700 380 730T457 760Q506 760 532 730T559 664Q559 642 547 620T513 583T457 568ZM686 568Q652 568 629 582T595 619T583 664Q583 700 609 730T686 760Q735 760 761 730T788 664Q788 642 776 620T742 583T686 568Z" />
<glyph unicode="&#xfd;" glyph-name="yacute" horiz-adv-x="634" d="M242 -210Q210 -210 173 -206T101 -191T43 -166L87 -8Q125 -27 164 -37T253 -48Q332 -48 366 -14T406 92L408 117Q378 69 333 41T230 13Q133 13 87 77T42 254L43 514H229L228 266Q228 226 243
206T287 186Q322 186 346 215T385 316T402 514H582V112Q582 0 540 -71T421 -176T242 -210ZM494 573L620 750L807 705L655 573H494Z" />
<glyph unicode="&#xfe;" glyph-name="thorn" horiz-adv-x="635" d="M52 -200V740H238V514L232 438Q283 521 389 521Q490 521 550 455T610 274Q610 188 574 124T478 25T348 -11Q281 -11 237 19L238 0V-200H52ZM319 149Q366 149 392 183T419 268Q419 313 398 337T341
361Q301 361 270 328T239 238Q239 198 260 174T319 149Z" />
<glyph unicode="&#xff;" glyph-name="ydieresis" horiz-adv-x="634" d="M242 -210Q210 -210 173 -206T101 -191T43 -166L87 -8Q125 -27 164 -37T253 -48Q332 -48 366 -14T406 92L408 117Q378 69 333 41T230 13Q133 13 87 77T42 254L43 514H229L228 266Q228 226
243 206T287 186Q322 186 346 215T385 316T402 514H582V112Q582 0 540 -71T421 -176T242 -210ZM458 568Q424 568 401 582T367 619T355 664Q355 700 381 730T458 760Q507 760 533 730T560 664Q560 642 548 620T514 583T458 568ZM687 568Q653 568 630 582T596 619T584
664Q584 700 610 730T687 760Q736 760 762 730T789 664Q789 642 777 620T743 583T687 568Z" />
<glyph unicode="&#x2013;" glyph-name="endash" horiz-adv-x="500" d="M20 184V338H480V184H20Z" />
<glyph unicode="&#x2014;" glyph-name="emdash" horiz-adv-x="1000" d="M20 184V338H980V184H20Z" />
<glyph unicode="&#x2018;" glyph-name="quoteleft" horiz-adv-x="325" d="M288 750Q266 702 255 664T244 594Q244 558 254 533T275 484T285 424Q285 383 252 352T162 321Q104 321 72 355T39 453Q39 495 59 548T115 655T193 750H288Z" />
<glyph unicode="&#x2019;" glyph-name="quoteright" horiz-adv-x="325" d="M38 321Q59 368 70 406T81 477Q81 513 71 538T51 587T41 647Q41 688 75 719T164 750Q222 750 254 716T287 618Q287 576 267 523T211 416T132 321H38Z" />
<glyph unicode="&#x201a;" glyph-name="quotesinglbase" horiz-adv-x="325" d="M38 -201Q59 -153 70 -115T81 -45Q81 -9 71 16T51 66T41 125Q41 167 74 197T163 228Q221 228 253 194T286 96Q286 54 266 1T211 -105T132 -201H38Z" />
<glyph unicode="&#x201c;" glyph-name="quotedblleft" horiz-adv-x="606" d="M568 750Q546 702 535 664T524 594Q524 558 534 533T555 484T565 424Q565 383 532 352T442 321Q384 321 352 355T319 453Q319 495 339 548T395 655T473 750H568ZM543 750Q521 702 510
664T499 594Q499 558 509 533T530 484T540 424Q540 383 507 352T417 321Q359 321 327 355T294 453Q294 495 314 548T370 655T448 750H543Z" />
<glyph unicode="&#x201d;" glyph-name="quotedblright" d="M318 321Q339 368 350 406T361 477Q361 513 351 538T331 587T321 647Q321 688 355 719T444 750Q502 750 534 716T567 618Q567 576 547 523T491 416T412 321H318ZM38 321Q59 368 70 406T81 477Q81 513
71 538T51 587T41 647Q41 688 75 719T164 750Q222 750 254 716T287 618Q287 576 267 523T211 416T132 321H38Z" />
<glyph unicode="&#x201e;" glyph-name="quotedblbase" horiz-adv-x="608" d="M321 -201Q342 -153 353 -115T364 -45Q364 -9 354 16T334 66T324 125Q324 167 357 197T446 228Q504 228 536 194T569 96Q569 54 549 1T494 -105T415 -201H321ZM38 -201Q59 -153 70 -115T81
-45Q81 -9 71 16T51 66T41 125Q41 167 74 197T163 228Q221 228 253 194T286 96Q286 54 266 1T211 -105T132 -201H38Z" />
<glyph unicode="&#x2022;" glyph-name="bullet" horiz-adv-x="435" d="M217 102Q169 102 131 124T70 185T47 273Q47 322 69 360T130 421T217 444Q265 444 304 422T365 361T388 273Q388 224 366 186T304 125T217 102Z" />
<glyph unicode="&#x2039;" glyph-name="guilsinglleft" horiz-adv-x="352" d="M141 70L33 216V290L141 436H339L202 254L339 70H141Z" />
<glyph unicode="&#x203a;" glyph-name="guilsinglright" horiz-adv-x="352" d="M210 70H13L149 254L13 436H210L319 290V216L210 70Z" />
</font>
</defs>
</svg>
