<svg width="24" height="24" fill="none" xmlns="http://www.w3.org/2000/svg"><path d="M12 0a12 12 0 00-4.37 23.17c-.1-.95-.2-2.4.04-3.44l1.4-5.96s-.35-.72-.35-1.78c0-1.67.96-2.92 2.17-2.92 1.02 0 1.52.77 1.52 1.7 0 1.02-.66 2.56-1 3.99-.28 1.2.6 2.17 1.78 2.17 2.13 0 3.77-2.25 3.77-5.5 0-2.87-2.06-4.88-5.01-4.88a5.2 5.2 0 00-5.42 5.2c0 1.04.4 2.14.9 2.74.1.12.1.23.08.35l-.34 1.36c-.05.22-.17.27-.4.16-1.5-.7-2.43-2.89-2.43-4.65 0-3.78 2.75-7.26 7.93-7.26 4.16 0 7.4 2.97 7.4 6.93 0 4.14-2.61 7.46-6.23 7.46-1.22 0-2.36-.63-2.75-1.37l-.75 2.85c-.27 1.04-1 2.35-1.5 3.14A12.03 12.03 0 0024 12 12 12 0 0012 0z" fill="#fff"/></svg>